<?xml version="1.0" encoding="UTF-8"?>
<svg width="1440px" height="881px" viewBox="0 0 1440 881" version="1.1" xmlns="http://www.w3.org/2000/svg" xmlns:xlink="http://www.w3.org/1999/xlink">
    <!-- Generator: Sketch 63.1 (92452) - https://sketch.com -->
    <title> Ant Design 门户</title>
    <desc>Created with Sketch.</desc>
    <defs>
        <rect id="path-1" x="0" y="0" width="1440" height="1109"></rect>
        <filter x="-37.1%" y="-44.2%" width="174.2%" height="189.4%" filterUnits="objectBoundingBox" id="filter-3">
            <feOffset dx="0" dy="8" in="SourceAlpha" result="shadowOffsetOuter1"></feOffset>
            <feGaussianBlur stdDeviation="8" in="shadowOffsetOuter1" result="shadowBlurOuter1"></feGaussianBlur>
            <feColorMatrix values="0 0 0 0 0.980392157   0 0 0 0 0.858823529   0 0 0 0 0.0784313725  0 0 0 0.3 0" type="matrix" in="shadowBlurOuter1" result="shadowMatrixOuter1"></feColorMatrix>
            <feMerge>
                <feMergeNode in="shadowMatrixOuter1"></feMergeNode>
                <feMergeNode in="SourceGraphic"></feMergeNode>
            </feMerge>
        </filter>
        <filter x="-39.3%" y="-46.8%" width="178.7%" height="193.7%" filterUnits="objectBoundingBox" id="filter-4">
            <feOffset dx="0" dy="5" in="SourceAlpha" result="shadowOffsetOuter1"></feOffset>
            <feGaussianBlur stdDeviation="5" in="shadowOffsetOuter1" result="shadowBlurOuter1"></feGaussianBlur>
            <feColorMatrix values="0 0 0 0 0.184313725   0 0 0 0 0.329411765   0 0 0 0 0.921568627  0 0 0 0.3 0" type="matrix" in="shadowBlurOuter1" result="shadowMatrixOuter1"></feColorMatrix>
            <feMerge>
                <feMergeNode in="shadowMatrixOuter1"></feMergeNode>
                <feMergeNode in="SourceGraphic"></feMergeNode>
            </feMerge>
        </filter>
    </defs>
    <g id="Page-1" stroke="none" stroke-width="1" fill="none" fill-rule="evenodd">
        <g id="-Ant-Design-门户" transform="translate(0.000000, -1628.000000)">
            <rect fill="#FFFFFF" x="0" y="0" width="1440" height="3641"></rect>
            <g id="解决方案" transform="translate(0.000000, 1444.000000)">
                <g id="Group-6">
                    <mask id="mask-2" fill="white">
                        <use xlink:href="#path-1"></use>
                    </mask>
                    <use id="Rectangle-3-Copy-5" fill="#EDF1F5" opacity="0.869169776" xlink:href="#path-1"></use>
                    <g id="Group-25" mask="url(#mask-2)">
                        <g transform="translate(-79.000000, -21.000000)">
                            <rect id="Rectangle-33" stroke="none" fill="#EBEDF0" fill-rule="evenodd" transform="translate(1261.132034, 1217.132034) rotate(45.000000) translate(-1261.132034, -1217.132034) " x="1111.13203" y="1067.13203" width="300" height="300" rx="1"></rect>
                            <circle id="Oval-13" stroke="#EBEDF0" stroke-width="16" fill="none" cx="1402" cy="151" r="70"></circle>
                            <path d="M385.032144,960.394832 L394.316344,976.475539 C394.868629,977.432124 394.540879,978.655305 393.584293,979.20759 C393.280255,979.383126 392.935367,979.475539 392.584293,979.475539 L374.015893,979.475539 C372.911323,979.475539 372.015893,978.580108 372.015893,977.475539 C372.015893,977.124466 372.108305,976.779577 372.283842,976.475539 L381.568042,960.394832 C382.120327,959.438247 383.343508,959.110497 384.300093,959.662781 C384.604131,959.838318 384.856607,960.090794 385.032144,960.394832 Z" id="Polygon-2" stroke="none" fill="#A3B1BF" fill-rule="evenodd" transform="translate(383.300093, 970.709623) rotate(70.000000) translate(-383.300093, -970.709623) "></path>
                            <path d="M545.537489,211.431472 L552.545207,223.569196 C553.097492,224.525781 552.769741,225.748962 551.813156,226.301246 C551.509118,226.476783 551.164229,226.569196 550.813156,226.569196 L536.79772,226.569196 C535.693151,226.569196 534.79772,225.673765 534.79772,224.569196 C534.79772,224.218122 534.890133,223.873234 535.06567,223.569196 L542.073387,211.431472 C542.625672,210.474887 543.848853,210.147137 544.805438,210.699421 C545.109477,210.874958 545.361952,211.127434 545.537489,211.431472 Z" id="Polygon-2" stroke="none" fill="#A3B1BF" fill-rule="evenodd" transform="translate(543.805605, 218.500167) rotate(90.000000) translate(-543.805605, -218.500167) "></path>
                            <g id="Group-26" stroke="none" stroke-width="1" fill="none" fill-rule="evenodd" transform="translate(146.000000, 298.000000)">
                                <g id="Group-4" filter="url(#filter-3)" transform="translate(0.466334, 0.443575)" fill="#FADB14">
                                    <path d="M3.96410162,4.50257739 L59.9641016,101.497423 C60.240244,101.975715 60.0763688,102.587306 59.5980762,102.863448 L57.8660254,103.863448 C57.3877328,104.13959 56.7761424,103.975715 56.5,103.497423 L0.5,6.50257739 C0.223857625,6.02428476 0.38773278,5.41269436 0.866025404,5.13655198 L2.59807621,4.13655198 C3.07636883,3.86040961 3.68795924,4.02428476 3.96410162,4.50257739 Z M15.9641016,3.50257739 L65.9641016,90.1051178 C66.240244,90.5834104 66.0763688,91.1950008 65.5980762,91.4711432 L63.8660254,92.4711432 C63.3877328,92.7472855 62.7761424,92.5834104 62.5,92.1051178 L12.5,5.50257739 C12.2238576,5.02428476 12.3877328,4.41269436 12.8660254,4.13655198 L14.5980762,3.13655198 C15.0763688,2.86040961 15.6879592,3.02428476 15.9641016,3.50257739 Z M28.9641016,3.50257739 L72.9641016,79.7128129 C73.240244,80.1911055 73.0763688,80.8026959 72.5980762,81.0788383 L70.8660254,82.0788383 C70.3877328,82.3549807 69.7761424,82.1911055 69.5,81.7128129 L25.5,5.50257739 C25.2238576,5.02428476 25.3877328,4.41269436 25.8660254,4.13655198 L27.5980762,3.13655198 C28.0763688,2.86040961 28.6879592,3.02428476 28.9641016,3.50257739 Z M42.9641016,3.50257739 L80.9641016,69.3205081 C81.240244,69.7988007 81.0763688,70.4103911 80.5980762,70.6865335 L78.8660254,71.6865335 C78.3877328,71.9626759 77.7761424,71.7988007 77.5,71.3205081 L39.5,5.50257739 C39.2238576,5.02428476 39.3877328,4.41269436 39.8660254,4.13655198 L41.5980762,3.13655198 C42.0763688,2.86040961 42.6879592,3.02428476 42.9641016,3.50257739 Z M56.9641016,3.69872981 L88.9641016,59.1243557 C89.240244,59.6026483 89.0763688,60.2142387 88.5980762,60.4903811 L86.8660254,61.4903811 C86.3877328,61.7665234 85.7761424,61.6026483 85.5,61.1243557 L53.5,5.69872981 C53.2238576,5.22043719 53.3877328,4.60884678 53.8660254,4.33270441 L55.5980762,3.33270441 C56.0763688,3.05656203 56.6879592,3.22043719 56.9641016,3.69872981 Z M69.9641016,2.89488223 L95.9641016,47.9282032 C96.240244,48.4064959 96.0763688,49.0180863 95.5980762,49.2942286 L93.8660254,50.2942286 C93.3877328,50.570371 92.7761424,50.4064959 92.5,49.9282032 L66.5,4.89488223 C66.2238576,4.41658961 66.3877328,3.8049992 66.8660254,3.52885683 L68.5980762,2.52885683 C69.0763688,2.25271445 69.6879592,2.41658961 69.9641016,2.89488223 Z M82.9641016,2.09103466 L102.964102,36.7320508 C103.240244,37.2103434 103.076369,37.8219338 102.598076,38.0980762 L100.866025,39.0980762 C100.387733,39.3742186 99.7761424,39.2103434 99.5,38.7320508 L79.5,4.09103466 C79.2238576,3.61274203 79.3877328,3.00115163 79.8660254,2.72500925 L81.5980762,1.72500925 C82.0763688,1.44886688 82.6879592,1.61274203 82.9641016,2.09103466 Z M95.9641016,1.28718708 L109.964102,25.5358984 C110.240244,26.014191 110.076369,26.6257814 109.598076,26.9019238 L107.866025,27.9019238 C107.387733,28.1780662 106.776142,28.014191 106.5,27.5358984 L92.5,3.28718708 C92.2238576,2.80889446 92.3877328,2.19730405 92.8660254,1.92116168 L94.5980762,0.921161675 C95.0763688,0.6450193 95.6879592,0.808894455 95.9641016,1.28718708 Z M108.964102,1.4833395 L116.964102,15.339746 C117.240244,15.8180386 117.076369,16.429629 116.598076,16.7057714 L114.866025,17.7057714 C114.387733,17.9819137 113.776142,17.8180386 113.5,17.339746 L105.5,3.4833395 C105.223858,3.00504688 105.387733,2.39345647 105.866025,2.1173141 L107.598076,1.1173141 C108.076369,0.841171723 108.687959,1.00504688 108.964102,1.4833395 Z M120.964102,1.67949192 L122.964102,5.14359354 C123.240244,5.62188616 123.076369,6.23347657 122.598076,6.50961894 L120.866025,7.50961894 C120.387733,7.78576132 119.776142,7.62188616 119.5,7.14359354 L117.5,3.67949192 C117.223858,3.2011993 117.387733,2.5896089 117.866025,2.31346652 L119.598076,1.31346652 C120.076369,1.03732415 120.687959,1.2011993 120.964102,1.67949192 Z" id="Combined-Shape"></path>
                                </g>
                            </g>
                        </g>
                    </g>
                </g>
                <g id="Group-3" transform="translate(697.000000, 798.000000)" fill="#13C2C2">
                    <rect id="Rectangle-15" x="0" y="8" width="43" height="4"></rect>
                    <rect id="Rectangle-15" x="0" y="0" width="43" height="4"></rect>
                    <rect id="Rectangle-15" x="0" y="16" width="43" height="4"></rect>
                    <rect id="Rectangle-15" x="0" y="24" width="43" height="4"></rect>
                    <rect id="Rectangle-15" x="0" y="32" width="43" height="4"></rect>
                </g>
                <g id="Group-27" transform="translate(80.000000, 219.000000)">
                    <g id="Group-29" transform="translate(283.000000, 844.000000)" fill="#2F54EB">
                        <path d="M2,70 C3.1045695,70 4,70.8954305 4,72 C4,73.1045695 3.1045695,74 2,74 C0.8954305,74 0,73.1045695 0,72 C0,70.8954305 0.8954305,70 2,70 Z M16,70 C17.1045695,70 18,70.8954305 18,72 C18,73.1045695 17.1045695,74 16,74 C14.8954305,74 14,73.1045695 14,72 C14,70.8954305 14.8954305,70 16,70 Z M30,70 C31.1045695,70 32,70.8954305 32,72 C32,73.1045695 31.1045695,74 30,74 C28.8954305,74 28,73.1045695 28,72 C28,70.8954305 28.8954305,70 30,70 Z M44,70 C45.1045695,70 46,70.8954305 46,72 C46,73.1045695 45.1045695,74 44,74 C42.8954305,74 42,73.1045695 42,72 C42,70.8954305 42.8954305,70 44,70 Z M2,56 C3.1045695,56 4,56.8954305 4,58 C4,59.1045695 3.1045695,60 2,60 C0.8954305,60 0,59.1045695 0,58 C0,56.8954305 0.8954305,56 2,56 Z M16,56 C17.1045695,56 18,56.8954305 18,58 C18,59.1045695 17.1045695,60 16,60 C14.8954305,60 14,59.1045695 14,58 C14,56.8954305 14.8954305,56 16,56 Z M30,56 C31.1045695,56 32,56.8954305 32,58 C32,59.1045695 31.1045695,60 30,60 C28.8954305,60 28,59.1045695 28,58 C28,56.8954305 28.8954305,56 30,56 Z M44,56 C45.1045695,56 46,56.8954305 46,58 C46,59.1045695 45.1045695,60 44,60 C42.8954305,60 42,59.1045695 42,58 C42,56.8954305 42.8954305,56 44,56 Z M2,42 C3.1045695,42 4,42.8954305 4,44 C4,45.1045695 3.1045695,46 2,46 C0.8954305,46 0,45.1045695 0,44 C0,42.8954305 0.8954305,42 2,42 Z M16,42 C17.1045695,42 18,42.8954305 18,44 C18,45.1045695 17.1045695,46 16,46 C14.8954305,46 14,45.1045695 14,44 C14,42.8954305 14.8954305,42 16,42 Z M30,42 C31.1045695,42 32,42.8954305 32,44 C32,45.1045695 31.1045695,46 30,46 C28.8954305,46 28,45.1045695 28,44 C28,42.8954305 28.8954305,42 30,42 Z M44,42 C45.1045695,42 46,42.8954305 46,44 C46,45.1045695 45.1045695,46 44,46 C42.8954305,46 42,45.1045695 42,44 C42,42.8954305 42.8954305,42 44,42 Z M2,28 C3.1045695,28 4,28.8954305 4,30 C4,31.1045695 3.1045695,32 2,32 C0.8954305,32 0,31.1045695 0,30 C0,28.8954305 0.8954305,28 2,28 Z M16,28 C17.1045695,28 18,28.8954305 18,30 C18,31.1045695 17.1045695,32 16,32 C14.8954305,32 14,31.1045695 14,30 C14,28.8954305 14.8954305,28 16,28 Z M30,28 C31.1045695,28 32,28.8954305 32,30 C32,31.1045695 31.1045695,32 30,32 C28.8954305,32 28,31.1045695 28,30 C28,28.8954305 28.8954305,28 30,28 Z M44,28 C45.1045695,28 46,28.8954305 46,30 C46,31.1045695 45.1045695,32 44,32 C42.8954305,32 42,31.1045695 42,30 C42,28.8954305 42.8954305,28 44,28 Z M2,14 C3.1045695,14 4,14.8954305 4,16 C4,17.1045695 3.1045695,18 2,18 C0.8954305,18 0,17.1045695 0,16 C0,14.8954305 0.8954305,14 2,14 Z M16,14 C17.1045695,14 18,14.8954305 18,16 C18,17.1045695 17.1045695,18 16,18 C14.8954305,18 14,17.1045695 14,16 C14,14.8954305 14.8954305,14 16,14 Z M30,14 C31.1045695,14 32,14.8954305 32,16 C32,17.1045695 31.1045695,18 30,18 C28.8954305,18 28,17.1045695 28,16 C28,14.8954305 28.8954305,14 30,14 Z M44,14 C45.1045695,14 46,14.8954305 46,16 C46,17.1045695 45.1045695,18 44,18 C42.8954305,18 42,17.1045695 42,16 C42,14.8954305 42.8954305,14 44,14 Z M2,0 C3.1045695,0 4,0.8954305 4,2 C4,3.1045695 3.1045695,4 2,4 C0.8954305,4 0,3.1045695 0,2 C0,0.8954305 0.8954305,0 2,0 Z M16,0 C17.1045695,0 18,0.8954305 18,2 C18,3.1045695 17.1045695,4 16,4 C14.8954305,4 14,3.1045695 14,2 C14,0.8954305 14.8954305,0 16,0 Z M30,0 C31.1045695,0 32,0.8954305 32,2 C32,3.1045695 31.1045695,4 30,4 C28.8954305,4 28,3.1045695 28,2 C28,0.8954305 28.8954305,0 30,0 Z M44,0 C45.1045695,0 46,0.8954305 46,2 C46,3.1045695 45.1045695,4 44,4 C42.8954305,4 42,3.1045695 42,2 C42,0.8954305 42.8954305,0 44,0 Z" id="Combined-Shape"></path>
                    </g>
                    <circle id="Oval-8" stroke="#13C2C2" stroke-width="4" opacity="0.95" cx="1096" cy="11" r="11"></circle>
                    <circle id="Oval-8" stroke="#13C2C2" stroke-width="4" cx="11" cy="667" r="11"></circle>
                    <g id="Group-11" transform="translate(1207.000000, 319.000000)" fill="#13C2C2">
                        <path d="M2,70 C3.1045695,70 4,70.8954305 4,72 C4,73.1045695 3.1045695,74 2,74 C0.8954305,74 0,73.1045695 0,72 C0,70.8954305 0.8954305,70 2,70 Z M16,70 C17.1045695,70 18,70.8954305 18,72 C18,73.1045695 17.1045695,74 16,74 C14.8954305,74 14,73.1045695 14,72 C14,70.8954305 14.8954305,70 16,70 Z M30,70 C31.1045695,70 32,70.8954305 32,72 C32,73.1045695 31.1045695,74 30,74 C28.8954305,74 28,73.1045695 28,72 C28,70.8954305 28.8954305,70 30,70 Z M44,70 C45.1045695,70 46,70.8954305 46,72 C46,73.1045695 45.1045695,74 44,74 C42.8954305,74 42,73.1045695 42,72 C42,70.8954305 42.8954305,70 44,70 Z M58,70 C59.1045695,70 60,70.8954305 60,72 C60,73.1045695 59.1045695,74 58,74 C56.8954305,74 56,73.1045695 56,72 C56,70.8954305 56.8954305,70 58,70 Z M72,70 C73.1045695,70 74,70.8954305 74,72 C74,73.1045695 73.1045695,74 72,74 C70.8954305,74 70,73.1045695 70,72 C70,70.8954305 70.8954305,70 72,70 Z M86,70 C87.1045695,70 88,70.8954305 88,72 C88,73.1045695 87.1045695,74 86,74 C84.8954305,74 84,73.1045695 84,72 C84,70.8954305 84.8954305,70 86,70 Z M100,70 C101.104569,70 102,70.8954305 102,72 C102,73.1045695 101.104569,74 100,74 C98.8954305,74 98,73.1045695 98,72 C98,70.8954305 98.8954305,70 100,70 Z M2,56 C3.1045695,56 4,56.8954305 4,58 C4,59.1045695 3.1045695,60 2,60 C0.8954305,60 0,59.1045695 0,58 C0,56.8954305 0.8954305,56 2,56 Z M16,56 C17.1045695,56 18,56.8954305 18,58 C18,59.1045695 17.1045695,60 16,60 C14.8954305,60 14,59.1045695 14,58 C14,56.8954305 14.8954305,56 16,56 Z M30,56 C31.1045695,56 32,56.8954305 32,58 C32,59.1045695 31.1045695,60 30,60 C28.8954305,60 28,59.1045695 28,58 C28,56.8954305 28.8954305,56 30,56 Z M44,56 C45.1045695,56 46,56.8954305 46,58 C46,59.1045695 45.1045695,60 44,60 C42.8954305,60 42,59.1045695 42,58 C42,56.8954305 42.8954305,56 44,56 Z M58,56 C59.1045695,56 60,56.8954305 60,58 C60,59.1045695 59.1045695,60 58,60 C56.8954305,60 56,59.1045695 56,58 C56,56.8954305 56.8954305,56 58,56 Z M72,56 C73.1045695,56 74,56.8954305 74,58 C74,59.1045695 73.1045695,60 72,60 C70.8954305,60 70,59.1045695 70,58 C70,56.8954305 70.8954305,56 72,56 Z M86,56 C87.1045695,56 88,56.8954305 88,58 C88,59.1045695 87.1045695,60 86,60 C84.8954305,60 84,59.1045695 84,58 C84,56.8954305 84.8954305,56 86,56 Z M100,56 C101.104569,56 102,56.8954305 102,58 C102,59.1045695 101.104569,60 100,60 C98.8954305,60 98,59.1045695 98,58 C98,56.8954305 98.8954305,56 100,56 Z M2,42 C3.1045695,42 4,42.8954305 4,44 C4,45.1045695 3.1045695,46 2,46 C0.8954305,46 0,45.1045695 0,44 C0,42.8954305 0.8954305,42 2,42 Z M16,42 C17.1045695,42 18,42.8954305 18,44 C18,45.1045695 17.1045695,46 16,46 C14.8954305,46 14,45.1045695 14,44 C14,42.8954305 14.8954305,42 16,42 Z M30,42 C31.1045695,42 32,42.8954305 32,44 C32,45.1045695 31.1045695,46 30,46 C28.8954305,46 28,45.1045695 28,44 C28,42.8954305 28.8954305,42 30,42 Z M44,42 C45.1045695,42 46,42.8954305 46,44 C46,45.1045695 45.1045695,46 44,46 C42.8954305,46 42,45.1045695 42,44 C42,42.8954305 42.8954305,42 44,42 Z M58,42 C59.1045695,42 60,42.8954305 60,44 C60,45.1045695 59.1045695,46 58,46 C56.8954305,46 56,45.1045695 56,44 C56,42.8954305 56.8954305,42 58,42 Z M72,42 C73.1045695,42 74,42.8954305 74,44 C74,45.1045695 73.1045695,46 72,46 C70.8954305,46 70,45.1045695 70,44 C70,42.8954305 70.8954305,42 72,42 Z M86,42 C87.1045695,42 88,42.8954305 88,44 C88,45.1045695 87.1045695,46 86,46 C84.8954305,46 84,45.1045695 84,44 C84,42.8954305 84.8954305,42 86,42 Z M100,42 C101.104569,42 102,42.8954305 102,44 C102,45.1045695 101.104569,46 100,46 C98.8954305,46 98,45.1045695 98,44 C98,42.8954305 98.8954305,42 100,42 Z M2,28 C3.1045695,28 4,28.8954305 4,30 C4,31.1045695 3.1045695,32 2,32 C0.8954305,32 0,31.1045695 0,30 C0,28.8954305 0.8954305,28 2,28 Z M16,28 C17.1045695,28 18,28.8954305 18,30 C18,31.1045695 17.1045695,32 16,32 C14.8954305,32 14,31.1045695 14,30 C14,28.8954305 14.8954305,28 16,28 Z M30,28 C31.1045695,28 32,28.8954305 32,30 C32,31.1045695 31.1045695,32 30,32 C28.8954305,32 28,31.1045695 28,30 C28,28.8954305 28.8954305,28 30,28 Z M72,28 C73.1045695,28 74,28.8954305 74,30 C74,31.1045695 73.1045695,32 72,32 C70.8954305,32 70,31.1045695 70,30 C70,28.8954305 70.8954305,28 72,28 Z M86,28 C87.1045695,28 88,28.8954305 88,30 C88,31.1045695 87.1045695,32 86,32 C84.8954305,32 84,31.1045695 84,30 C84,28.8954305 84.8954305,28 86,28 Z M44,28 C45.1045695,28 46,28.8954305 46,30 C46,31.1045695 45.1045695,32 44,32 C42.8954305,32 42,31.1045695 42,30 C42,28.8954305 42.8954305,28 44,28 Z M58,28 C59.1045695,28 60,28.8954305 60,30 C60,31.1045695 59.1045695,32 58,32 C56.8954305,32 56,31.1045695 56,30 C56,28.8954305 56.8954305,28 58,28 Z M100,28 C101.104569,28 102,28.8954305 102,30 C102,31.1045695 101.104569,32 100,32 C98.8954305,32 98,31.1045695 98,30 C98,28.8954305 98.8954305,28 100,28 Z M58,14 C59.1045695,14 60,14.8954305 60,16 C60,17.1045695 59.1045695,18 58,18 C56.8954305,18 56,17.1045695 56,16 C56,14.8954305 56.8954305,14 58,14 Z M44,14 C45.1045695,14 46,14.8954305 46,16 C46,17.1045695 45.1045695,18 44,18 C42.8954305,18 42,17.1045695 42,16 C42,14.8954305 42.8954305,14 44,14 Z M72,14 C73.1045695,14 74,14.8954305 74,16 C74,17.1045695 73.1045695,18 72,18 C70.8954305,18 70,17.1045695 70,16 C70,14.8954305 70.8954305,14 72,14 Z M86,14 C87.1045695,14 88,14.8954305 88,16 C88,17.1045695 87.1045695,18 86,18 C84.8954305,18 84,17.1045695 84,16 C84,14.8954305 84.8954305,14 86,14 Z M100,14 C101.104569,14 102,14.8954305 102,16 C102,17.1045695 101.104569,18 100,18 C98.8954305,18 98,17.1045695 98,16 C98,14.8954305 98.8954305,14 100,14 Z M16,14 C17.1045695,14 18,14.8954305 18,16 C18,17.1045695 17.1045695,18 16,18 C14.8954305,18 14,17.1045695 14,16 C14,14.8954305 14.8954305,14 16,14 Z M30,14 C31.1045695,14 32,14.8954305 32,16 C32,17.1045695 31.1045695,18 30,18 C28.8954305,18 28,17.1045695 28,16 C28,14.8954305 28.8954305,14 30,14 Z M2,14 C3.1045695,14 4,14.8954305 4,16 C4,17.1045695 3.1045695,18 2,18 C0.8954305,18 0,17.1045695 0,16 C0,14.8954305 0.8954305,14 2,14 Z M2,0 C3.1045695,0 4,0.8954305 4,2 C4,3.1045695 3.1045695,4 2,4 C0.8954305,4 0,3.1045695 0,2 C0,0.8954305 0.8954305,0 2,0 Z M16,0 C17.1045695,0 18,0.8954305 18,2 C18,3.1045695 17.1045695,4 16,4 C14.8954305,4 14,3.1045695 14,2 C14,0.8954305 14.8954305,0 16,0 Z M30,0 C31.1045695,0 32,0.8954305 32,2 C32,3.1045695 31.1045695,4 30,4 C28.8954305,4 28,3.1045695 28,2 C28,0.8954305 28.8954305,0 30,0 Z M44,0 C45.1045695,0 46,0.8954305 46,2 C46,3.1045695 45.1045695,4 44,4 C42.8954305,4 42,3.1045695 42,2 C42,0.8954305 42.8954305,0 44,0 Z M58,0 C59.1045695,0 60,0.8954305 60,2 C60,3.1045695 59.1045695,4 58,4 C56.8954305,4 56,3.1045695 56,2 C56,0.8954305 56.8954305,0 58,0 Z M72,0 C73.1045695,0 74,0.8954305 74,2 C74,3.1045695 73.1045695,4 72,4 C70.8954305,4 70,3.1045695 70,2 C70,0.8954305 70.8954305,0 72,0 Z M86,0 C87.1045695,0 88,0.8954305 88,2 C88,3.1045695 87.1045695,4 86,4 C84.8954305,4 84,3.1045695 84,2 C84,0.8954305 84.8954305,0 86,0 Z M100,0 C101.104569,0 102,0.8954305 102,2 C102,3.1045695 101.104569,4 100,4 C98.8954305,4 98,3.1045695 98,2 C98,0.8954305 98.8954305,0 100,0 Z" id="Combined-Shape"></path>
                    </g>
                    <g id="Group-28" transform="translate(884.000000, 711.000000)" fill="#2F54EB">
                        <g id="Group-4" filter="url(#filter-4)" transform="translate(31.500000, 37.500000) rotate(90.000000) translate(-31.500000, -37.500000) translate(-6.000000, 6.000000)">
                            <rect id="Rectangle-20" transform="translate(19.041708, 32.400000) rotate(-30.000000) translate(-19.041708, -32.400000) " x="17.8481594" y="-1.8" width="2.38709677" height="68.4" rx="0.6"></rect>
                            <rect id="Rectangle-20" transform="translate(24.412675, 28.682309) rotate(-30.000000) translate(-24.412675, -28.682309) " x="23.2191271" y="-1.91769145" width="2.38709677" height="61.2" rx="0.6"></rect>
                            <rect id="Rectangle-20" transform="translate(30.380417, 25.564617) rotate(-30.000000) translate(-30.380417, -25.564617) " x="29.186869" y="-1.43538291" width="2.38709677" height="54" rx="0.6"></rect>
                            <rect id="Rectangle-20" transform="translate(36.944934, 22.446926) rotate(-30.000000) translate(-36.944934, -22.446926) " x="35.7513852" y="-0.953074361" width="2.38709677" height="46.8" rx="0.6"></rect>
                            <path d="M42.9159013,-0.353074361 L44.1029981,-0.353074361 C44.4343689,-0.353074361 44.7029981,-0.0844452108 44.7029981,0.246925639 L44.7029981,38.6469256 C44.7029981,38.9782965 44.4343689,39.2469256 44.1029981,39.2469256 L42.9159013,39.2469256 C42.5845304,39.2469256 42.3159013,38.9782965 42.3159013,38.6469256 L42.3159013,0.246925639 C42.3159013,-0.0844452108 42.5845304,-0.353074361 42.9159013,-0.353074361 Z" id="Rectangle-20" transform="translate(43.509450, 19.446926) rotate(-30.000000) translate(-43.509450, -19.446926) "></path>
                            <rect id="Rectangle-20" transform="translate(49.477192, 15.846926) rotate(-30.000000) translate(-49.477192, -15.846926) " x="48.2836432" y="-0.353074361" width="2.38709677" height="32.4" rx="0.6"></rect>
                            <rect id="Rectangle-20" transform="translate(55.444934, 12.246926) rotate(-30.000000) translate(-55.444934, -12.246926) " x="54.2513852" y="-0.353074361" width="2.38709677" height="25.2" rx="0.6"></rect>
                            <rect id="Rectangle-20" transform="translate(61.412675, 8.646926) rotate(-30.000000) translate(-61.412675, -8.646926) " x="60.2191271" y="-0.353074361" width="2.38709677" height="18" rx="0.6"></rect>
                            <rect id="Rectangle-20" transform="translate(67.380417, 5.646926) rotate(-30.000000) translate(-67.380417, -5.646926) " x="66.186869" y="0.246925639" width="2.38709677" height="10.8" rx="0.6"></rect>
                            <rect id="Rectangle-20" transform="translate(72.751385, 2.646926) rotate(-30.000000) translate(-72.751385, -2.646926) " x="71.5578368" y="0.846925639" width="2.38709677" height="3.6" rx="0.6"></rect>
                        </g>
                    </g>
                </g>
                <rect id="Rectangle-14" stroke="#F5222D" opacity="0.7" x="750.5" y="1001.5" width="16" height="16" rx="1"></rect>
            </g>
        </g>
    </g>
</svg>